# xmcd CD database file
#
# Track frame offsets:
#	183
#	12268
#	27453
#	49148
#	65485
#	79223
#	95170
#	111033
#	128230
#	140218
#	155925
#	167400
#	199658
#	216325
#	232613
#
# Disc length: 3417 seconds
#
# Revision: 0
# Processed by: cddbd v1.5PL3 Copyright (c) Steve Scherf et al.
# Submitted via: CDex 1.51
#
DISCID=d60d570f
DTITLE=Count Basie - Compilation
DYEAR=1900
DGENRE=Jazz
TTITLE0=The kid from red bank
TTITLE1=Flight of the foo birds
TTITLE2=Li'l Darlin'
TTITLE3=Sleepwalker's serenade
TTITLE4=The late late show
TTITLE5=Don't cry baby
TTITLE6=Little mama
TTITLE7=For Lena and Lennie
TTITLE8=Rat race
TTITLE9=Meet B B
TTITLE10=Little pony
TTITLE11=Plymouth rock
TTITLE12=Splanky
TTITLE13=April in Paris
TTITLE14=Blues backstage
EXTD=
EXTT0=
EXTT1=
EXTT2=
EXTT3=
EXTT4=
EXTT5=
EXTT6=
EXTT7=
EXTT8=
EXTT9=
EXTT10=
EXTT11=
EXTT12=
EXTT13=
EXTT14=
PLAYORDER=
